<?xml version="1.0" encoding="UTF-8" standalone="no"?>
<!DOCTYPE svg PUBLIC "-//W3C//DTD SVG 1.1//EN" "http://www.w3.org/Graphics/SVG/1.1/DTD/svg11.dtd">
<svg xmlns="http://www.w3.org/2000/svg" version="1.1" viewBox="0 0 275 245">
<g stroke-width="2.00" fill="none" stroke-linecap="butt">
<path stroke="#6f7778" stroke-opacity="0.992" vector-effect="non-scaling-stroke" d="
  M 4.31 0.00
  Q 5.03 1.61 5.99 3.08
  Q 23.69 30.33 41.40 57.57
  Q 41.49 57.72 40.93 57.96"
/>
<path stroke="#6f7778" stroke-opacity="0.992" vector-effect="non-scaling-stroke" d="
  M 204.05 0.07
  Q 226.48 3.15 242.98 15.77
  Q 272.24 38.14 274.64 76.38
  A 0.14 0.14 0.0 0 0 274.75 76.50
  L 275.00 76.56"
/>
<path stroke="#6f7778" stroke-opacity="0.992" vector-effect="non-scaling-stroke" d="
  M 274.67 83.04
  C 271.92 127.66 236.52 159.60 192.00 159.29
  Q 184.92 159.24 178.92 159.20
  Q 177.29 159.18 178.18 160.55
  Q 205.44 202.82 230.87 242.44
  C 231.38 243.24 231.37 244.17 231.94 245.00"
/>
<path stroke="#6f7778" stroke-opacity="0.992" vector-effect="non-scaling-stroke" d="
  M 162.50 244.79
  Q 122.93 181.74 81.98 119.58
  Q 80.26 116.96 73.05 106.44
  Q 72.60 105.78 71.25 102.04"
/>
<path stroke="#6f7778" stroke-opacity="0.992" vector-effect="non-scaling-stroke" d="
  M 200.38 100.38
  C 225.83 92.01 220.23 58.09 193.54 57.61
  A 0.59 0.59 0.0 0 0 193.02 57.89
  Q 192.92 58.07 193.00 58.21"
/>
</g>
<path fill="#b1b6af" fill-opacity="0.984" d="
  M 3.31 0.00
  L 4.31 0.00
  Q 5.03 1.61 5.99 3.08
  Q 23.69 30.33 41.40 57.57
  Q 41.49 57.72 40.93 57.96
  Q 22.06 29.76 3.70 1.54
  Q 3.24 0.82 3.31 0.00
  Z"
/>
<path fill="#2f3841" d="
  M 4.31 0.00
  L 204.05 0.07
  Q 226.48 3.15 242.98 15.77
  Q 272.24 38.14 274.64 76.38
  A 0.14 0.14 0.0 0 0 274.75 76.50
  L 275.00 76.56
  L 274.67 83.04
  C 271.92 127.66 236.52 159.60 192.00 159.29
  Q 184.92 159.24 178.92 159.20
  Q 177.29 159.18 178.18 160.55
  Q 205.44 202.82 230.87 242.44
  C 231.38 243.24 231.37 244.17 231.94 245.00
  L 162.44 245.00
  L 162.50 244.79
  Q 122.93 181.74 81.98 119.58
  Q 80.26 116.96 73.05 106.44
  Q 72.60 105.78 71.25 102.04
  Q 131.50 102.07 191.75 102.25
  Q 195.26 102.26 200.38 100.38
  C 225.83 92.01 220.23 58.09 193.54 57.61
  A 0.59 0.59 0.0 0 0 193.02 57.89
  Q 192.92 58.07 193.00 58.21
  L 192.62 58.08
  Q 192.37 58.00 192.10 58.00
  L 40.93 57.96
  Q 41.49 57.72 41.40 57.57
  Q 23.69 30.33 5.99 3.08
  Q 5.03 1.61 4.31 0.00
  Z"
/>
<path fill="#b1b6af" fill-opacity="0.984" d="
  M 204.05 0.07
  L 206.56 0.00
  C 243.03 5.03 269.99 33.72 275.00 69.81
  L 275.00 76.56
  L 274.75 76.50
  A 0.14 0.14 0.0 0 1 274.64 76.38
  Q 272.24 38.14 242.98 15.77
  Q 226.48 3.15 204.05 0.07
  Z"
/>
<path fill="#b1b6af" fill-opacity="0.984" d="
  M 200.38 100.38
  Q 207.89 96.73 210.71 93.23
  C 223.23 77.69 211.87 58.37 193.00 58.21
  Q 192.92 58.07 193.02 57.89
  A 0.59 0.59 0.0 0 1 193.54 57.61
  C 220.23 58.09 225.83 92.01 200.38 100.38
  Z"
/>
<path fill="#b1b6af" fill-opacity="0.984" d="
  M 274.67 83.04
  L 275.00 88.31
  C 270.07 125.30 243.03 153.82 206.10 159.16
  C 197.92 160.34 188.28 160.09 179.40 159.98
  Q 178.82 159.97 179.14 160.46
  Q 206.01 202.33 232.95 244.04
  Q 233.24 244.49 232.69 245.00
  L 231.94 245.00
  C 231.37 244.17 231.38 243.24 230.87 242.44
  Q 205.44 202.82 178.18 160.55
  Q 177.29 159.18 178.92 159.20
  Q 184.92 159.24 192.00 159.29
  C 236.52 159.60 271.92 127.66 274.67 83.04
  Z"
/>
<path fill="#b1b6af" fill-opacity="0.984" d="
  M 71.25 102.04
  Q 72.60 105.78 73.05 106.44
  Q 80.26 116.96 81.98 119.58
  Q 122.93 181.74 162.50 244.79
  Q 162.17 244.60 161.97 244.29
  Q 127.29 191.06 92.81 137.69
  C 91.54 135.71 90.02 134.07 88.90 132.03
  C 86.98 128.55 83.83 122.70 80.53 120.52
  A 0.91 0.88 18.9 0 1 80.12 119.72
  Q 80.25 117.12 77.85 116.76
  A 0.70 0.69 5.1 0 1 77.25 116.05
  Q 77.30 114.06 75.72 112.82
  A 1.71 1.64 12.8 0 1 75.14 111.94
  Q 74.67 110.21 73.01 109.41
  A 0.98 0.97 10.3 0 1 72.46 108.62
  Q 72.16 105.47 70.27 102.92
  A 0.55 0.54 -28.9 0 1 70.51 102.09
  Q 70.89 101.93 71.25 102.04
  Z"
/>
</svg>
