<?xml version="1.0" encoding="UTF-8" standalone="no"?>
<!DOCTYPE svg PUBLIC "-//W3C//DTD SVG 1.1//EN" "http://www.w3.org/Graphics/SVG/1.1/DTD/svg11.dtd">
<svg xmlns="http://www.w3.org/2000/svg" version="1.1" width="1em" height="1em"  viewBox="0 0 275 245">
<path fill="#fff" d="
  M 4.31 0.00
  L 204.05 0.07
  Q 226.48 3.15 242.98 15.77
  Q 272.24 38.14 274.64 76.38
  A 0.14 0.14 0.0 0 0 274.75 76.50
  L 275.00 76.56
  L 274.67 83.04
  C 271.92 127.66 236.52 159.60 192.00 159.29
  Q 184.92 159.24 178.92 159.20
  Q 177.29 159.18 178.18 160.55
  Q 205.44 202.82 230.87 242.44
  C 231.38 243.24 231.37 244.17 231.94 245.00
  L 162.44 245.00
  L 162.50 244.79
  Q 122.93 181.74 81.98 119.58
  Q 80.26 116.96 73.05 106.44
  Q 72.60 105.78 71.25 102.04
  Q 131.50 102.07 191.75 102.25
  Q 195.26 102.26 200.38 100.38
  C 225.83 92.01 220.23 58.09 193.54 57.61
  A 0.59 0.59 0.0 0 0 193.02 57.89
  Q 192.92 58.07 193.00 58.21
  L 192.62 58.08
  Q 192.37 58.00 192.10 58.00
  L 40.93 57.96
  Q 41.49 57.72 41.40 57.57
  Q 23.69 30.33 5.99 3.08
  Q 5.03 1.61 4.31 0.00
  Z"
/>
</svg>
